<mxfile host="65bd71144e">
    <diagram id="JHMhDlFgdbrqGRNj-byF" name="Page-1">
        <mxGraphModel dx="832" dy="571" grid="1" gridSize="10" guides="1" tooltips="1" connect="1" arrows="1" fold="1" page="1" pageScale="1" pageWidth="850" pageHeight="1100" math="0" shadow="0">
            <root>
                <mxCell id="0"/>
                <mxCell id="1" parent="0"/>
                <mxCell id="44" value="" style="edgeStyle=none;html=1;" parent="1" source="2" target="31" edge="1">
                    <mxGeometry relative="1" as="geometry"/>
                </mxCell>
                <mxCell id="2" value="" style="shape=actor;whiteSpace=wrap;html=1;" parent="1" vertex="1">
                    <mxGeometry x="5" y="100" width="20" height="20" as="geometry"/>
                </mxCell>
                <mxCell id="27" value="Gerecht" style="swimlane;childLayout=stackLayout;resizeParent=1;resizeParentMax=0;startSize=20;html=1;" parent="1" vertex="1">
                    <mxGeometry x="105" y="30" width="740" height="480" as="geometry"/>
                </mxCell>
                <mxCell id="28" value="Controller" style="swimlane;startSize=20;html=1;" parent="27" vertex="1">
                    <mxGeometry y="20" width="190" height="460" as="geometry"/>
                </mxCell>
                <mxCell id="33" value="" style="edgeStyle=none;html=1;" parent="28" source="31" target="32" edge="1">
                    <mxGeometry relative="1" as="geometry"/>
                </mxCell>
                <mxCell id="31" value="Initialisatie" style="rounded=0;whiteSpace=wrap;html=1;" parent="28" vertex="1">
                    <mxGeometry x="35" y="40" width="115" height="40" as="geometry"/>
                </mxCell>
                <mxCell id="73" value="" style="edgeStyle=none;html=1;" parent="28" source="32" target="72" edge="1">
                    <mxGeometry relative="1" as="geometry"/>
                </mxCell>
                <mxCell id="32" value="Ophalen gerecht" style="rounded=0;whiteSpace=wrap;html=1;" parent="28" vertex="1">
                    <mxGeometry x="35" y="110" width="115" height="40" as="geometry"/>
                </mxCell>
                <mxCell id="72" value="Gerecht tonen" style="rounded=0;whiteSpace=wrap;html=1;" parent="28" vertex="1">
                    <mxGeometry x="32.5" y="220" width="120" height="60" as="geometry"/>
                </mxCell>
                <mxCell id="39" value="" style="edgeStyle=none;html=1;" parent="27" source="34" target="32" edge="1">
                    <mxGeometry relative="1" as="geometry"/>
                </mxCell>
                <mxCell id="29" value="Business Logic" style="swimlane;startSize=20;html=1;" parent="27" vertex="1">
                    <mxGeometry x="190" y="20" width="340" height="460" as="geometry"/>
                </mxCell>
                <mxCell id="34" value="Ophalen gerecht" style="rounded=0;whiteSpace=wrap;html=1;" parent="29" vertex="1">
                    <mxGeometry x="40" y="110" width="115" height="40" as="geometry"/>
                </mxCell>
                <mxCell id="64" value="Ophalen keuken" style="rounded=0;whiteSpace=wrap;html=1;" parent="29" vertex="1">
                    <mxGeometry x="200" y="240" width="115" height="40" as="geometry"/>
                </mxCell>
                <mxCell id="70" style="edgeStyle=none;html=1;entryX=0;entryY=0.5;entryDx=0;entryDy=0;" parent="29" source="34" target="64" edge="1">
                    <mxGeometry relative="1" as="geometry"/>
                </mxCell>
                <mxCell id="30" value="Model" style="swimlane;startSize=20;html=1;" parent="27" vertex="1">
                    <mxGeometry x="530" y="20" width="210" height="460" as="geometry"/>
                </mxCell>
                <mxCell id="40" value="Gerecht" style="swimlane;" parent="30" vertex="1">
                    <mxGeometry x="35" y="40" width="140" height="170" as="geometry"/>
                </mxCell>
                <mxCell id="42" value="&lt;div&gt;ID&lt;/div&gt;&lt;div&gt;keuken_id&lt;/div&gt;&lt;div&gt;type_id&lt;/div&gt;&lt;div&gt;user_id&lt;/div&gt;&lt;div&gt;datum_toegevoegd&lt;/div&gt;&lt;div&gt;titel&lt;/div&gt;&lt;div&gt;korte_omschrijving&lt;/div&gt;&lt;div&gt;lange_omschrijving&lt;/div&gt;&lt;div&gt;afbeelding&lt;/div&gt;" style="text;html=1;align=center;verticalAlign=middle;resizable=0;points=[];autosize=1;strokeColor=none;fillColor=none;" parent="40" vertex="1">
                    <mxGeometry x="5" y="20" width="130" height="140" as="geometry"/>
                </mxCell>
                <mxCell id="65" value="Selecteer keuken" style="rounded=0;whiteSpace=wrap;html=1;" parent="30" vertex="1">
                    <mxGeometry x="45" y="240" width="115" height="40" as="geometry"/>
                </mxCell>
                <mxCell id="67" value="Ophalen type" style="rounded=0;whiteSpace=wrap;html=1;" parent="30" vertex="1">
                    <mxGeometry x="-140" y="290" width="115" height="40" as="geometry"/>
                </mxCell>
                <mxCell id="68" value="Selecteer type" style="rounded=0;whiteSpace=wrap;html=1;" parent="30" vertex="1">
                    <mxGeometry x="45" y="290" width="115" height="40" as="geometry"/>
                </mxCell>
                <mxCell id="69" value="" style="edgeStyle=none;html=1;" parent="30" source="68" target="67" edge="1">
                    <mxGeometry relative="1" as="geometry"/>
                </mxCell>
                <mxCell id="198" value="Ophalen gerechtInfo (en waardering)" style="rounded=0;whiteSpace=wrap;html=1;" vertex="1" parent="30">
                    <mxGeometry x="-140" y="340" width="115" height="40" as="geometry"/>
                </mxCell>
                <mxCell id="199" value="Selecteer gerechtInfo" style="rounded=0;whiteSpace=wrap;html=1;" vertex="1" parent="30">
                    <mxGeometry x="45" y="340" width="115" height="40" as="geometry"/>
                </mxCell>
                <mxCell id="200" value="" style="edgeStyle=none;html=1;" edge="1" parent="30" source="199" target="198">
                    <mxGeometry relative="1" as="geometry"/>
                </mxCell>
                <mxCell id="43" value="" style="edgeStyle=none;html=1;" parent="27" source="42" target="34" edge="1">
                    <mxGeometry relative="1" as="geometry"/>
                </mxCell>
                <mxCell id="71" style="edgeStyle=none;html=1;entryX=0;entryY=0.5;entryDx=0;entryDy=0;" parent="27" source="34" target="67" edge="1">
                    <mxGeometry relative="1" as="geometry">
                        <Array as="points"/>
                    </mxGeometry>
                </mxCell>
                <mxCell id="66" value="" style="edgeStyle=none;html=1;" parent="27" source="65" target="64" edge="1">
                    <mxGeometry relative="1" as="geometry"/>
                </mxCell>
                <mxCell id="201" style="edgeStyle=none;html=1;entryX=0;entryY=0.5;entryDx=0;entryDy=0;" edge="1" parent="27" source="34" target="198">
                    <mxGeometry relative="1" as="geometry">
                        <Array as="points">
                            <mxPoint x="335" y="380"/>
                        </Array>
                    </mxGeometry>
                </mxCell>
                <mxCell id="46" value="" style="endArrow=none;dashed=1;html=1;dashPattern=1 3;strokeWidth=2;" parent="1" edge="1">
                    <mxGeometry width="50" height="50" relative="1" as="geometry">
                        <mxPoint x="465" y="500" as="sourcePoint"/>
                        <mxPoint x="465" y="80" as="targetPoint"/>
                    </mxGeometry>
                </mxCell>
                <mxCell id="78" value="" style="ellipse;whiteSpace=wrap;html=1;rounded=0;" parent="1" vertex="1">
                    <mxGeometry x="5" y="285" width="30" height="30" as="geometry"/>
                </mxCell>
                <mxCell id="79" value="" style="edgeStyle=none;html=1;" parent="1" source="72" target="78" edge="1">
                    <mxGeometry relative="1" as="geometry"/>
                </mxCell>
                <mxCell id="141" value="KeukenType" style="swimlane;childLayout=stackLayout;resizeParent=1;resizeParentMax=0;startSize=20;html=1;" vertex="1" parent="1">
                    <mxGeometry x="105" y="540" width="740" height="150" as="geometry"/>
                </mxCell>
                <mxCell id="142" value="Controller" style="swimlane;startSize=20;html=1;" vertex="1" parent="141">
                    <mxGeometry y="20" width="190" height="130" as="geometry"/>
                </mxCell>
                <mxCell id="143" value="Business Logic" style="swimlane;startSize=20;html=1;" vertex="1" parent="141">
                    <mxGeometry x="190" y="20" width="340" height="130" as="geometry"/>
                </mxCell>
                <mxCell id="144" value="Selecteren keuken/type" style="rounded=0;whiteSpace=wrap;html=1;" vertex="1" parent="143">
                    <mxGeometry x="35" y="50" width="115" height="40" as="geometry"/>
                </mxCell>
                <mxCell id="145" value="Model" style="swimlane;startSize=20;html=1;" vertex="1" parent="141">
                    <mxGeometry x="530" y="20" width="210" height="130" as="geometry"/>
                </mxCell>
                <mxCell id="146" value="KeukenType" style="swimlane;" vertex="1" parent="145">
                    <mxGeometry x="32.5" y="30" width="140" height="80" as="geometry"/>
                </mxCell>
                <mxCell id="147" value="&lt;div&gt;ID&lt;/div&gt;&lt;div&gt;record_type [K, T]&lt;/div&gt;&lt;div&gt;omschrijving&lt;/div&gt;" style="text;html=1;align=center;verticalAlign=middle;resizable=0;points=[];autosize=1;strokeColor=none;fillColor=none;" vertex="1" parent="146">
                    <mxGeometry x="10" y="25" width="120" height="60" as="geometry"/>
                </mxCell>
                <mxCell id="148" style="edgeStyle=none;html=1;entryX=1;entryY=0.5;entryDx=0;entryDy=0;" edge="1" parent="141" source="146" target="144">
                    <mxGeometry relative="1" as="geometry"/>
                </mxCell>
                <mxCell id="149" value="" style="endArrow=none;dashed=1;html=1;dashPattern=1 3;strokeWidth=2;" edge="1" parent="1">
                    <mxGeometry width="50" height="50" relative="1" as="geometry">
                        <mxPoint x="465" y="680" as="sourcePoint"/>
                        <mxPoint x="465" y="590" as="targetPoint"/>
                    </mxGeometry>
                </mxCell>
                <mxCell id="150" value="User" style="swimlane;childLayout=stackLayout;resizeParent=1;resizeParentMax=0;startSize=20;html=1;" vertex="1" parent="1">
                    <mxGeometry x="105" y="2290" width="740" height="170" as="geometry"/>
                </mxCell>
                <mxCell id="151" value="Controller" style="swimlane;startSize=20;html=1;" vertex="1" parent="150">
                    <mxGeometry y="20" width="190" height="150" as="geometry"/>
                </mxCell>
                <mxCell id="152" value="Business Logic" style="swimlane;startSize=20;html=1;" vertex="1" parent="150">
                    <mxGeometry x="190" y="20" width="340" height="150" as="geometry"/>
                </mxCell>
                <mxCell id="153" value="Ophalen user" style="rounded=0;whiteSpace=wrap;html=1;" vertex="1" parent="152">
                    <mxGeometry x="25" y="70" width="115" height="40" as="geometry"/>
                </mxCell>
                <mxCell id="154" value="Model" style="swimlane;startSize=20;html=1;" vertex="1" parent="150">
                    <mxGeometry x="530" y="20" width="210" height="150" as="geometry"/>
                </mxCell>
                <mxCell id="155" value="User" style="swimlane;" vertex="1" parent="154">
                    <mxGeometry x="35" y="30" width="140" height="100" as="geometry"/>
                </mxCell>
                <mxCell id="156" value="&lt;div&gt;ID&lt;/div&gt;&lt;div&gt;user_name&lt;/div&gt;&lt;div&gt;password&lt;/div&gt;&lt;div&gt;email&lt;/div&gt;&lt;div&gt;afbeelding&lt;/div&gt;" style="text;html=1;align=center;verticalAlign=middle;resizable=0;points=[];autosize=1;strokeColor=none;fillColor=none;" vertex="1" parent="155">
                    <mxGeometry x="27.5" y="15" width="80" height="90" as="geometry"/>
                </mxCell>
                <mxCell id="157" value="" style="edgeStyle=none;html=1;" edge="1" parent="150" target="153">
                    <mxGeometry relative="1" as="geometry">
                        <mxPoint x="565" y="110" as="sourcePoint"/>
                    </mxGeometry>
                </mxCell>
                <mxCell id="158" value="" style="endArrow=none;dashed=1;html=1;dashPattern=1 3;strokeWidth=2;" edge="1" parent="1">
                    <mxGeometry width="50" height="50" relative="1" as="geometry">
                        <mxPoint x="465" y="2450" as="sourcePoint"/>
                        <mxPoint x="465" y="2340" as="targetPoint"/>
                    </mxGeometry>
                </mxCell>
                <mxCell id="159" value="Ingrediënt" style="swimlane;childLayout=stackLayout;resizeParent=1;resizeParentMax=0;startSize=20;html=1;" vertex="1" parent="1">
                    <mxGeometry x="105" y="720" width="740" height="520" as="geometry"/>
                </mxCell>
                <mxCell id="160" value="Controller" style="swimlane;startSize=20;html=1;" vertex="1" parent="159">
                    <mxGeometry y="20" width="190" height="500" as="geometry"/>
                </mxCell>
                <mxCell id="161" value="Business Logic" style="swimlane;startSize=20;html=1;" vertex="1" parent="159">
                    <mxGeometry x="190" y="20" width="340" height="500" as="geometry"/>
                </mxCell>
                <mxCell id="162" style="edgeStyle=none;html=1;entryX=0;entryY=0.5;entryDx=0;entryDy=0;" edge="1" parent="161" source="163" target="164">
                    <mxGeometry relative="1" as="geometry"/>
                </mxCell>
                <mxCell id="175" style="edgeStyle=none;html=1;entryX=0;entryY=0.5;entryDx=0;entryDy=0;" edge="1" parent="161" source="163" target="173">
                    <mxGeometry relative="1" as="geometry">
                        <Array as="points">
                            <mxPoint x="125" y="290"/>
                        </Array>
                    </mxGeometry>
                </mxCell>
                <mxCell id="176" style="edgeStyle=none;html=1;entryX=0;entryY=0.5;entryDx=0;entryDy=0;" edge="1" parent="161" source="163" target="174">
                    <mxGeometry relative="1" as="geometry">
                        <Array as="points">
                            <mxPoint x="85" y="350"/>
                        </Array>
                    </mxGeometry>
                </mxCell>
                <mxCell id="163" value="Selecteren ingrediënten" style="rounded=0;whiteSpace=wrap;html=1;" vertex="1" parent="161">
                    <mxGeometry x="25" y="80" width="115" height="40" as="geometry"/>
                </mxCell>
                <mxCell id="164" value="Ophalen artikel" style="rounded=0;whiteSpace=wrap;html=1;" vertex="1" parent="161">
                    <mxGeometry x="195" y="210" width="115" height="40" as="geometry"/>
                </mxCell>
                <mxCell id="173" value="Bereken prijs" style="rounded=0;whiteSpace=wrap;html=1;" vertex="1" parent="161">
                    <mxGeometry x="195" y="270" width="115" height="40" as="geometry"/>
                </mxCell>
                <mxCell id="174" value="Bereken calorieën" style="rounded=0;whiteSpace=wrap;html=1;" vertex="1" parent="161">
                    <mxGeometry x="195" y="330" width="115" height="40" as="geometry"/>
                </mxCell>
                <mxCell id="165" value="Model" style="swimlane;startSize=20;html=1;" vertex="1" parent="159">
                    <mxGeometry x="530" y="20" width="210" height="500" as="geometry"/>
                </mxCell>
                <mxCell id="166" value="Ingrediënt" style="swimlane;" vertex="1" parent="165">
                    <mxGeometry x="35" y="40" width="140" height="100" as="geometry"/>
                </mxCell>
                <mxCell id="167" value="&lt;div&gt;ID&lt;/div&gt;&lt;div&gt;gerecht_id&lt;/div&gt;&lt;div&gt;artikel_id&lt;/div&gt;&lt;div&gt;aantal&lt;/div&gt;" style="text;html=1;align=center;verticalAlign=middle;resizable=0;points=[];autosize=1;strokeColor=none;fillColor=none;" vertex="1" parent="166">
                    <mxGeometry x="27.5" y="25" width="80" height="70" as="geometry"/>
                </mxCell>
                <mxCell id="168" value="" style="edgeStyle=none;html=1;" edge="1" parent="159" source="167" target="163">
                    <mxGeometry relative="1" as="geometry"/>
                </mxCell>
                <mxCell id="169" value="" style="endArrow=none;dashed=1;html=1;dashPattern=1 3;strokeWidth=2;exitX=0.5;exitY=1;exitDx=0;exitDy=0;" edge="1" parent="1" source="161">
                    <mxGeometry width="50" height="50" relative="1" as="geometry">
                        <mxPoint x="465" y="990" as="sourcePoint"/>
                        <mxPoint x="465" y="770" as="targetPoint"/>
                    </mxGeometry>
                </mxCell>
                <mxCell id="170" value="Artikel" style="swimlane;" vertex="1" parent="1">
                    <mxGeometry x="670" y="900" width="140" height="120" as="geometry"/>
                </mxCell>
                <mxCell id="171" value="&lt;div&gt;ID&lt;/div&gt;&lt;div&gt;naam&lt;/div&gt;&lt;div&gt;omschrijving&lt;/div&gt;&lt;div&gt;prijs&lt;/div&gt;&lt;div&gt;eenheid&lt;/div&gt;&lt;div&gt;verpakking&lt;/div&gt;" style="text;html=1;align=center;verticalAlign=middle;resizable=0;points=[];autosize=1;strokeColor=none;fillColor=none;" vertex="1" parent="170">
                    <mxGeometry x="22.5" y="20" width="90" height="100" as="geometry"/>
                </mxCell>
                <mxCell id="172" value="" style="edgeStyle=none;html=1;" edge="1" parent="1" source="171" target="164">
                    <mxGeometry relative="1" as="geometry"/>
                </mxCell>
                <mxCell id="177" value="Artikel" style="swimlane;childLayout=stackLayout;resizeParent=1;resizeParentMax=0;startSize=20;html=1;" vertex="1" parent="1">
                    <mxGeometry x="105" y="1280" width="740" height="180" as="geometry"/>
                </mxCell>
                <mxCell id="178" value="Controller" style="swimlane;startSize=20;html=1;" vertex="1" parent="177">
                    <mxGeometry y="20" width="190" height="160" as="geometry"/>
                </mxCell>
                <mxCell id="179" value="Business Logic" style="swimlane;startSize=20;html=1;" vertex="1" parent="177">
                    <mxGeometry x="190" y="20" width="340" height="160" as="geometry"/>
                </mxCell>
                <mxCell id="180" value="Selecteren artikel" style="rounded=0;whiteSpace=wrap;html=1;" vertex="1" parent="179">
                    <mxGeometry x="25" y="70" width="115" height="40" as="geometry"/>
                </mxCell>
                <mxCell id="188" value="" style="endArrow=none;dashed=1;html=1;dashPattern=1 3;strokeWidth=2;exitX=0.5;exitY=1;exitDx=0;exitDy=0;" edge="1" parent="179" source="179">
                    <mxGeometry width="50" height="50" relative="1" as="geometry">
                        <mxPoint x="169.5" y="140" as="sourcePoint"/>
                        <mxPoint x="169.5" y="20" as="targetPoint"/>
                    </mxGeometry>
                </mxCell>
                <mxCell id="181" value="Model" style="swimlane;startSize=20;html=1;" vertex="1" parent="177">
                    <mxGeometry x="530" y="20" width="210" height="160" as="geometry"/>
                </mxCell>
                <mxCell id="187" style="edgeStyle=none;html=1;entryX=1;entryY=0.5;entryDx=0;entryDy=0;" edge="1" parent="1" source="185" target="180">
                    <mxGeometry relative="1" as="geometry"/>
                </mxCell>
                <mxCell id="185" value="Artikel" style="swimlane;" vertex="1" parent="1">
                    <mxGeometry x="670" y="1330" width="140" height="120" as="geometry"/>
                </mxCell>
                <mxCell id="186" value="&lt;div&gt;ID&lt;/div&gt;&lt;div&gt;naam&lt;/div&gt;&lt;div&gt;omschrijving&lt;/div&gt;&lt;div&gt;prijs&lt;/div&gt;&lt;div&gt;eenheid&lt;/div&gt;&lt;div&gt;verpakking&lt;/div&gt;" style="text;html=1;align=center;verticalAlign=middle;resizable=0;points=[];autosize=1;strokeColor=none;fillColor=none;" vertex="1" parent="185">
                    <mxGeometry x="22.5" y="20" width="90" height="100" as="geometry"/>
                </mxCell>
                <mxCell id="189" value="GerechtInfo" style="swimlane;childLayout=stackLayout;resizeParent=1;resizeParentMax=0;startSize=20;html=1;" vertex="1" parent="1">
                    <mxGeometry x="105" y="1490" width="740" height="480" as="geometry"/>
                </mxCell>
                <mxCell id="190" value="Controller" style="swimlane;startSize=20;html=1;" vertex="1" parent="189">
                    <mxGeometry y="20" width="190" height="460" as="geometry"/>
                </mxCell>
                <mxCell id="191" value="Business Logic" style="swimlane;startSize=20;html=1;" vertex="1" parent="189">
                    <mxGeometry x="190" y="20" width="340" height="460" as="geometry"/>
                </mxCell>
                <mxCell id="205" style="edgeStyle=none;html=1;entryX=0;entryY=0.5;entryDx=0;entryDy=0;exitX=0.998;exitY=0.817;exitDx=0;exitDy=0;exitPerimeter=0;" edge="1" parent="191" target="203">
                    <mxGeometry relative="1" as="geometry">
                        <mxPoint x="139.99999999999997" y="349.6750000000002" as="sourcePoint"/>
                    </mxGeometry>
                </mxCell>
                <mxCell id="192" value="Ophalen GerechtInfo" style="rounded=0;whiteSpace=wrap;html=1;" vertex="1" parent="191">
                    <mxGeometry x="30" y="50" width="110" height="300" as="geometry"/>
                </mxCell>
                <mxCell id="193" value="" style="endArrow=none;dashed=1;html=1;dashPattern=1 3;strokeWidth=2;" edge="1" parent="191">
                    <mxGeometry width="50" height="50" relative="1" as="geometry">
                        <mxPoint x="175" y="450" as="sourcePoint"/>
                        <mxPoint x="175" y="20" as="targetPoint"/>
                    </mxGeometry>
                </mxCell>
                <mxCell id="203" value="Bereken waardering&lt;span style=&quot;color: rgba(0, 0, 0, 0); font-family: monospace; font-size: 0px; text-align: start;&quot;&gt;%3CmxGraphModel%3E%3Croot%3E%3CmxCell%20id%3D%220%22%2F%3E%3CmxCell%20id%3D%221%22%20parent%3D%220%22%2F%3E%3CmxCell%20id%3D%222%22%20value%3D%22Selecteer%20GerechtInfo%22%20style%3D%22rounded%3D0%3BwhiteSpace%3Dwrap%3Bhtml%3D1%3B%22%20vertex%3D%221%22%20parent%3D%221%22%3E%3CmxGeometry%20x%3D%22320%22%20y%3D%221585%22%20width%3D%22115%22%20height%3D%2240%22%20as%3D%22geometry%22%2F%3E%3C%2FmxCell%3E%3C%2Froot%3E%3C%2FmxGraphModel%3E&lt;/span&gt;" style="rounded=0;whiteSpace=wrap;html=1;" vertex="1" parent="191">
                    <mxGeometry x="195.23" y="390" width="115" height="40" as="geometry"/>
                </mxCell>
                <mxCell id="210" value="" style="edgeStyle=none;html=1;entryX=1.026;entryY=0.667;entryDx=0;entryDy=0;entryPerimeter=0;" edge="1" parent="191" source="207">
                    <mxGeometry relative="1" as="geometry">
                        <mxPoint x="142.99" y="230.0999999999999" as="targetPoint"/>
                    </mxGeometry>
                </mxCell>
                <mxCell id="207" value="Ophalen user" style="rounded=0;whiteSpace=wrap;html=1;" vertex="1" parent="191">
                    <mxGeometry x="195.23" y="210" width="115" height="40" as="geometry"/>
                </mxCell>
                <mxCell id="221" value="" style="edgeStyle=none;html=1;entryX=1.026;entryY=0.229;entryDx=0;entryDy=0;entryPerimeter=0;" edge="1" parent="191" source="214">
                    <mxGeometry relative="1" as="geometry">
                        <mxPoint x="140" y="138.69999999999982" as="targetPoint"/>
                    </mxGeometry>
                </mxCell>
                <mxCell id="214" value="Ophalen bereidingswijze" style="rounded=0;whiteSpace=wrap;html=1;" vertex="1" parent="191">
                    <mxGeometry x="195.23" y="120" width="115" height="40" as="geometry"/>
                </mxCell>
                <mxCell id="222" value="" style="edgeStyle=none;html=1;entryX=0.998;entryY=0.4;entryDx=0;entryDy=0;entryPerimeter=0;" edge="1" parent="191" source="215">
                    <mxGeometry relative="1" as="geometry">
                        <mxPoint x="139.99999999999997" y="310" as="targetPoint"/>
                    </mxGeometry>
                </mxCell>
                <mxCell id="215" value="Ophalen opmerkingen" style="rounded=0;whiteSpace=wrap;html=1;" vertex="1" parent="191">
                    <mxGeometry x="195.23" y="290" width="115" height="40" as="geometry"/>
                </mxCell>
                <mxCell id="208" value="" style="edgeStyle=none;html=1;" edge="1" parent="189" source="206" target="207">
                    <mxGeometry relative="1" as="geometry"/>
                </mxCell>
                <mxCell id="194" value="Model" style="swimlane;startSize=20;html=1;" vertex="1" parent="189">
                    <mxGeometry x="530" y="20" width="210" height="460" as="geometry"/>
                </mxCell>
                <mxCell id="206" value="Selecteren user" style="rounded=0;whiteSpace=wrap;html=1;" vertex="1" parent="194">
                    <mxGeometry x="47.73" y="210" width="115" height="40" as="geometry"/>
                </mxCell>
                <mxCell id="217" style="edgeStyle=none;html=1;entryX=0.998;entryY=0.064;entryDx=0;entryDy=0;entryPerimeter=0;" edge="1" parent="1" target="192">
                    <mxGeometry relative="1" as="geometry">
                        <mxPoint x="670" y="1580" as="sourcePoint"/>
                        <mxPoint x="605" y="1580" as="targetPoint"/>
                    </mxGeometry>
                </mxCell>
                <mxCell id="218" style="edgeStyle=none;html=1;entryX=1;entryY=0.5;entryDx=0;entryDy=0;" edge="1" parent="1" target="214">
                    <mxGeometry relative="1" as="geometry">
                        <mxPoint x="667.01" y="1650" as="sourcePoint"/>
                    </mxGeometry>
                </mxCell>
                <mxCell id="219" style="edgeStyle=none;html=1;entryX=1;entryY=0.5;entryDx=0;entryDy=0;" edge="1" parent="1" target="215">
                    <mxGeometry relative="1" as="geometry">
                        <mxPoint x="810" y="1700" as="sourcePoint"/>
                        <Array as="points">
                            <mxPoint x="810" y="1820"/>
                        </Array>
                    </mxGeometry>
                </mxCell>
                <mxCell id="196" value="GerechtInfo" style="swimlane;" vertex="1" parent="1">
                    <mxGeometry x="670" y="1540" width="150" height="160" as="geometry"/>
                </mxCell>
                <mxCell id="197" value="&lt;div&gt;ID&lt;/div&gt;&lt;div&gt;record_type&lt;/div&gt;&lt;div&gt;gerecht_id&lt;/div&gt;&lt;div&gt;user_id&lt;/div&gt;&lt;div&gt;datum&lt;/div&gt;&lt;div&gt;nummeriekveld&lt;/div&gt;&lt;div&gt;tekstveld&lt;/div&gt;" style="text;html=1;align=center;verticalAlign=middle;resizable=0;points=[];autosize=1;strokeColor=none;fillColor=none;" vertex="1" parent="196">
                    <mxGeometry x="20" y="20" width="100" height="110" as="geometry"/>
                </mxCell>
                <mxCell id="60" value="Ophalen user" style="rounded=0;whiteSpace=wrap;html=1;" parent="1" vertex="1">
                    <mxGeometry x="495" y="440" width="115" height="40" as="geometry"/>
                </mxCell>
                <mxCell id="59" value="Selecteer user" style="rounded=0;whiteSpace=wrap;html=1;" parent="1" vertex="1">
                    <mxGeometry x="680" y="440" width="115" height="40" as="geometry"/>
                </mxCell>
                <mxCell id="61" value="" style="edgeStyle=none;html=1;" parent="1" source="59" target="60" edge="1">
                    <mxGeometry relative="1" as="geometry"/>
                </mxCell>
                <mxCell id="202" style="edgeStyle=none;html=1;entryX=0;entryY=0.5;entryDx=0;entryDy=0;" edge="1" parent="1" source="34" target="60">
                    <mxGeometry relative="1" as="geometry">
                        <Array as="points">
                            <mxPoint x="393" y="460"/>
                        </Array>
                    </mxGeometry>
                </mxCell>
                <mxCell id="239" value="Bereidingswijze" style="swimlane;childLayout=stackLayout;resizeParent=1;resizeParentMax=0;startSize=20;html=1;" vertex="1" parent="1">
                    <mxGeometry x="105" y="1990" width="740" height="130" as="geometry"/>
                </mxCell>
                <mxCell id="240" value="Controller" style="swimlane;startSize=20;html=1;" vertex="1" parent="239">
                    <mxGeometry y="20" width="190" height="110" as="geometry"/>
                </mxCell>
                <mxCell id="241" value="Business Logic" style="swimlane;startSize=20;html=1;" vertex="1" parent="239">
                    <mxGeometry x="190" y="20" width="340" height="110" as="geometry"/>
                </mxCell>
                <mxCell id="242" value="Ophalen bereidingswijze" style="rounded=0;whiteSpace=wrap;html=1;" vertex="1" parent="241">
                    <mxGeometry x="25" y="42.5" width="115" height="40" as="geometry"/>
                </mxCell>
                <mxCell id="243" value="" style="endArrow=none;dashed=1;html=1;dashPattern=1 3;strokeWidth=2;exitX=0.5;exitY=1;exitDx=0;exitDy=0;" edge="1" parent="241" source="241">
                    <mxGeometry width="50" height="50" relative="1" as="geometry">
                        <mxPoint x="169.5" y="140" as="sourcePoint"/>
                        <mxPoint x="169.5" y="20" as="targetPoint"/>
                    </mxGeometry>
                </mxCell>
                <mxCell id="244" value="Model" style="swimlane;startSize=20;html=1;" vertex="1" parent="239">
                    <mxGeometry x="530" y="20" width="210" height="110" as="geometry"/>
                </mxCell>
                <mxCell id="246" value="Bereidingswijze" style="swimlane;" vertex="1" parent="244">
                    <mxGeometry x="35" y="30" width="140" height="65" as="geometry"/>
                </mxCell>
                <mxCell id="247" value="stap (num)&lt;br&gt;bereiding (tekst)" style="text;html=1;align=center;verticalAlign=middle;resizable=0;points=[];autosize=1;strokeColor=none;fillColor=none;" vertex="1" parent="246">
                    <mxGeometry x="15" y="25" width="110" height="40" as="geometry"/>
                </mxCell>
                <mxCell id="245" style="edgeStyle=none;html=1;entryX=1;entryY=0.5;entryDx=0;entryDy=0;" edge="1" parent="239" source="246" target="242">
                    <mxGeometry relative="1" as="geometry"/>
                </mxCell>
                <mxCell id="248" value="Opmerkingen" style="swimlane;childLayout=stackLayout;resizeParent=1;resizeParentMax=0;startSize=20;html=1;" vertex="1" parent="1">
                    <mxGeometry x="105" y="2140" width="740" height="130" as="geometry"/>
                </mxCell>
                <mxCell id="249" value="Controller" style="swimlane;startSize=20;html=1;" vertex="1" parent="248">
                    <mxGeometry y="20" width="190" height="110" as="geometry"/>
                </mxCell>
                <mxCell id="250" value="Business Logic" style="swimlane;startSize=20;html=1;" vertex="1" parent="248">
                    <mxGeometry x="190" y="20" width="340" height="110" as="geometry"/>
                </mxCell>
                <mxCell id="251" value="Ophalen opmerkingen" style="rounded=0;whiteSpace=wrap;html=1;" vertex="1" parent="250">
                    <mxGeometry x="25" y="42.5" width="115" height="40" as="geometry"/>
                </mxCell>
                <mxCell id="252" value="" style="endArrow=none;dashed=1;html=1;dashPattern=1 3;strokeWidth=2;exitX=0.5;exitY=1;exitDx=0;exitDy=0;" edge="1" parent="250" source="250">
                    <mxGeometry width="50" height="50" relative="1" as="geometry">
                        <mxPoint x="169.5" y="140" as="sourcePoint"/>
                        <mxPoint x="169.5" y="20" as="targetPoint"/>
                    </mxGeometry>
                </mxCell>
                <mxCell id="253" value="Model" style="swimlane;startSize=20;html=1;" vertex="1" parent="248">
                    <mxGeometry x="530" y="20" width="210" height="110" as="geometry"/>
                </mxCell>
                <mxCell id="254" value="Opmerkingen" style="swimlane;" vertex="1" parent="253">
                    <mxGeometry x="35" y="30" width="140" height="65" as="geometry"/>
                </mxCell>
                <mxCell id="258" value="user_id&lt;br&gt;opmerking" style="text;html=1;align=center;verticalAlign=middle;resizable=0;points=[];autosize=1;strokeColor=none;fillColor=none;" vertex="1" parent="253">
                    <mxGeometry x="62.5" y="55" width="80" height="40" as="geometry"/>
                </mxCell>
                <mxCell id="256" style="edgeStyle=none;html=1;entryX=1;entryY=0.5;entryDx=0;entryDy=0;" edge="1" parent="248" source="254" target="251">
                    <mxGeometry relative="1" as="geometry"/>
                </mxCell>
                <mxCell id="259" value="Waardering" style="swimlane;childLayout=stackLayout;resizeParent=1;resizeParentMax=0;startSize=20;html=1;" vertex="1" parent="1">
                    <mxGeometry x="105" y="2480" width="740" height="130" as="geometry"/>
                </mxCell>
                <mxCell id="260" value="Controller" style="swimlane;startSize=20;html=1;" vertex="1" parent="259">
                    <mxGeometry y="20" width="190" height="110" as="geometry"/>
                </mxCell>
                <mxCell id="261" value="Business Logic" style="swimlane;startSize=20;html=1;" vertex="1" parent="259">
                    <mxGeometry x="190" y="20" width="340" height="110" as="geometry"/>
                </mxCell>
                <mxCell id="262" value="Ophalen waardering" style="rounded=0;whiteSpace=wrap;html=1;" vertex="1" parent="261">
                    <mxGeometry x="25" y="42.5" width="115" height="40" as="geometry"/>
                </mxCell>
                <mxCell id="263" value="" style="endArrow=none;dashed=1;html=1;dashPattern=1 3;strokeWidth=2;exitX=0.5;exitY=1;exitDx=0;exitDy=0;" edge="1" parent="261" source="261">
                    <mxGeometry width="50" height="50" relative="1" as="geometry">
                        <mxPoint x="169.5" y="140" as="sourcePoint"/>
                        <mxPoint x="169.5" y="20" as="targetPoint"/>
                    </mxGeometry>
                </mxCell>
                <mxCell id="264" value="Model" style="swimlane;startSize=20;html=1;" vertex="1" parent="259">
                    <mxGeometry x="530" y="20" width="210" height="110" as="geometry"/>
                </mxCell>
                <mxCell id="265" value="Waardering" style="swimlane;" vertex="1" parent="264">
                    <mxGeometry x="35.23" y="37.5" width="140" height="50" as="geometry"/>
                </mxCell>
                <mxCell id="266" value="aantal" style="text;html=1;align=center;verticalAlign=middle;resizable=0;points=[];autosize=1;strokeColor=none;fillColor=none;" vertex="1" parent="265">
                    <mxGeometry x="40" y="20" width="60" height="30" as="geometry"/>
                </mxCell>
                <mxCell id="267" style="edgeStyle=none;html=1;entryX=1;entryY=0.5;entryDx=0;entryDy=0;" edge="1" parent="259" source="265" target="262">
                    <mxGeometry relative="1" as="geometry"/>
                </mxCell>
                <mxCell id="269" value="Favoriet" style="swimlane;childLayout=stackLayout;resizeParent=1;resizeParentMax=0;startSize=20;html=1;" vertex="1" parent="1">
                    <mxGeometry x="105" y="2630" width="740" height="130" as="geometry"/>
                </mxCell>
                <mxCell id="270" value="Controller" style="swimlane;startSize=20;html=1;" vertex="1" parent="269">
                    <mxGeometry y="20" width="190" height="110" as="geometry"/>
                </mxCell>
                <mxCell id="271" value="Business Logic" style="swimlane;startSize=20;html=1;" vertex="1" parent="269">
                    <mxGeometry x="190" y="20" width="340" height="110" as="geometry"/>
                </mxCell>
                <mxCell id="272" value="Favorieten ophalen" style="rounded=0;whiteSpace=wrap;html=1;" vertex="1" parent="271">
                    <mxGeometry x="25" y="42.5" width="115" height="40" as="geometry"/>
                </mxCell>
                <mxCell id="273" value="" style="endArrow=none;dashed=1;html=1;dashPattern=1 3;strokeWidth=2;exitX=0.5;exitY=1;exitDx=0;exitDy=0;" edge="1" parent="271" source="271">
                    <mxGeometry width="50" height="50" relative="1" as="geometry">
                        <mxPoint x="169.5" y="140" as="sourcePoint"/>
                        <mxPoint x="169.5" y="20" as="targetPoint"/>
                    </mxGeometry>
                </mxCell>
                <mxCell id="274" value="Model" style="swimlane;startSize=20;html=1;" vertex="1" parent="269">
                    <mxGeometry x="530" y="20" width="210" height="110" as="geometry"/>
                </mxCell>
                <mxCell id="275" value="Favoriet" style="swimlane;" vertex="1" parent="274">
                    <mxGeometry x="35.23" y="37.5" width="140" height="50" as="geometry"/>
                </mxCell>
                <mxCell id="276" value="user_id" style="text;html=1;align=center;verticalAlign=middle;resizable=0;points=[];autosize=1;strokeColor=none;fillColor=none;" vertex="1" parent="275">
                    <mxGeometry x="40" y="20" width="60" height="30" as="geometry"/>
                </mxCell>
                <mxCell id="277" style="edgeStyle=none;html=1;entryX=1;entryY=0.5;entryDx=0;entryDy=0;" edge="1" parent="269" source="275" target="272">
                    <mxGeometry relative="1" as="geometry"/>
                </mxCell>
            </root>
        </mxGraphModel>
    </diagram>
</mxfile>